<?xml version="1.0" encoding="UTF-8" standalone="no"?><svg xmlns="http://www.w3.org/2000/svg" xmlns:xlink="http://www.w3.org/1999/xlink" contentScriptType="application/ecmascript" contentStyleType="text/css" height="339px" preserveAspectRatio="none" style="width:384px;height:339px;" version="1.1" viewBox="0 0 384 339" width="384px" zoomAndPan="magnify"><defs><filter height="300%" id="f1nwd5gfvwhd0s" width="300%" x="-1" y="-1"><feGaussianBlur result="blurOut" stdDeviation="2.0"/><feColorMatrix in="blurOut" result="blurOut2" type="matrix" values="0 0 0 0 0 0 0 0 0 0 0 0 0 0 0 0 0 0 .4 0"/><feOffset dx="4.0" dy="4.0" in="blurOut2" result="blurOut3"/><feBlend in="SourceGraphic" in2="blurOut3" mode="normal"/></filter></defs><g><line style="stroke: #A80036; stroke-width: 1.0; stroke-dasharray: 5.0,5.0;" x1="28" x2="28" y1="86.2969" y2="251.9609"/><line style="stroke: #A80036; stroke-width: 1.0; stroke-dasharray: 5.0,5.0;" x1="133" x2="133" y1="86.2969" y2="251.9609"/><line style="stroke: #A80036; stroke-width: 1.0; stroke-dasharray: 5.0,5.0;" x1="188" x2="188" y1="86.2969" y2="251.9609"/><line style="stroke: #A80036; stroke-width: 1.0; stroke-dasharray: 5.0,5.0;" x1="239" x2="239" y1="86.2969" y2="251.9609"/><line style="stroke: #A80036; stroke-width: 1.0; stroke-dasharray: 5.0,5.0;" x1="289" x2="289" y1="86.2969" y2="251.9609"/><line style="stroke: #A80036; stroke-width: 1.0; stroke-dasharray: 5.0,5.0;" x1="348" x2="348" y1="86.2969" y2="251.9609"/><text fill="#000000" font-family="sans-serif" font-size="14" lengthAdjust="spacingAndGlyphs" textLength="35" x="8" y="82.9951">Foo1</text><ellipse cx="28.5" cy="13" fill="#FEFECE" filter="url(#f1nwd5gfvwhd0s)" rx="8" ry="8" style="stroke: #A80036; stroke-width: 2.0;"/><path d="M28.5,21 L28.5,48 M15.5,29 L41.5,29 M28.5,48 L15.5,63 M28.5,48 L41.5,63 " fill="none" filter="url(#f1nwd5gfvwhd0s)" style="stroke: #A80036; stroke-width: 2.0;"/><text fill="#000000" font-family="sans-serif" font-size="14" lengthAdjust="spacingAndGlyphs" textLength="35" x="8" y="263.9561">Foo1</text><ellipse cx="28.5" cy="277.2578" fill="#FEFECE" filter="url(#f1nwd5gfvwhd0s)" rx="8" ry="8" style="stroke: #A80036; stroke-width: 2.0;"/><path d="M28.5,285.2578 L28.5,312.2578 M15.5,293.2578 L41.5,293.2578 M28.5,312.2578 L15.5,327.2578 M28.5,312.2578 L41.5,327.2578 " fill="none" filter="url(#f1nwd5gfvwhd0s)" style="stroke: #A80036; stroke-width: 2.0;"/><text fill="#000000" font-family="sans-serif" font-size="14" lengthAdjust="spacingAndGlyphs" textLength="34" x="113.5" y="82.9951">Foo2</text><path d="M113,42 L113,66 M113,54 L130,54 " fill="none" filter="url(#f1nwd5gfvwhd0s)" style="stroke: #A80036; stroke-width: 2.0;"/><ellipse cx="142" cy="54" fill="#FEFECE" filter="url(#f1nwd5gfvwhd0s)" rx="12" ry="12" style="stroke: #A80036; stroke-width: 2.0;"/><text fill="#000000" font-family="sans-serif" font-size="14" lengthAdjust="spacingAndGlyphs" textLength="34" x="113.5" y="263.9561">Foo2</text><path d="M113,271.2578 L113,295.2578 M113,283.2578 L130,283.2578 " fill="none" filter="url(#f1nwd5gfvwhd0s)" style="stroke: #A80036; stroke-width: 2.0;"/><ellipse cx="142" cy="283.2578" fill="#FEFECE" filter="url(#f1nwd5gfvwhd0s)" rx="12" ry="12" style="stroke: #A80036; stroke-width: 2.0;"/><text fill="#000000" font-family="sans-serif" font-size="14" lengthAdjust="spacingAndGlyphs" textLength="35" x="168" y="82.9951">Foo3</text><ellipse cx="188.5" cy="54" fill="#FEFECE" filter="url(#f1nwd5gfvwhd0s)" rx="12" ry="12" style="stroke: #A80036; stroke-width: 2.0;"/><polygon fill="#A80036" points="184.5,42,190.5,37,188.5,42,190.5,47,184.5,42" style="stroke: #A80036; stroke-width: 1.0;"/><text fill="#000000" font-family="sans-serif" font-size="14" lengthAdjust="spacingAndGlyphs" textLength="35" x="168" y="263.9561">Foo3</text><ellipse cx="188.5" cy="283.2578" fill="#FEFECE" filter="url(#f1nwd5gfvwhd0s)" rx="12" ry="12" style="stroke: #A80036; stroke-width: 2.0;"/><polygon fill="#A80036" points="184.5,271.2578,190.5,266.2578,188.5,271.2578,190.5,276.2578,184.5,271.2578" style="stroke: #A80036; stroke-width: 1.0;"/><text fill="#000000" font-family="sans-serif" font-size="14" lengthAdjust="spacingAndGlyphs" textLength="34" x="219" y="82.9951">Foo4</text><ellipse cx="239" cy="54" fill="#FEFECE" filter="url(#f1nwd5gfvwhd0s)" rx="12" ry="12" style="stroke: #A80036; stroke-width: 2.0;"/><line style="stroke: #A80036; stroke-width: 2.0;" x1="227" x2="251" y1="68" y2="68"/><text fill="#000000" font-family="sans-serif" font-size="14" lengthAdjust="spacingAndGlyphs" textLength="34" x="219" y="263.9561">Foo4</text><ellipse cx="239" cy="283.2578" fill="#FEFECE" filter="url(#f1nwd5gfvwhd0s)" rx="12" ry="12" style="stroke: #A80036; stroke-width: 2.0;"/><line style="stroke: #A80036; stroke-width: 2.0;" x1="227" x2="251" y1="297.2578" y2="297.2578"/><text fill="#000000" font-family="sans-serif" font-size="14" lengthAdjust="spacingAndGlyphs" textLength="35" x="269" y="82.9951">Foo5</text><path d="M271.5,34 C271.5,24 289.5,24 289.5,24 C289.5,24 307.5,24 307.5,34 L307.5,60 C307.5,70 289.5,70 289.5,70 C289.5,70 271.5,70 271.5,60 L271.5,34 " fill="#FEFECE" filter="url(#f1nwd5gfvwhd0s)" style="stroke: #000000; stroke-width: 1.5;"/><path d="M271.5,34 C271.5,44 289.5,44 289.5,44 C289.5,44 307.5,44 307.5,34 " fill="none" style="stroke: #000000; stroke-width: 1.5;"/><text fill="#000000" font-family="sans-serif" font-size="14" lengthAdjust="spacingAndGlyphs" textLength="35" x="269" y="263.9561">Foo5</text><path d="M271.5,277.2578 C271.5,267.2578 289.5,267.2578 289.5,267.2578 C289.5,267.2578 307.5,267.2578 307.5,277.2578 L307.5,303.2578 C307.5,313.2578 289.5,313.2578 289.5,313.2578 C289.5,313.2578 271.5,313.2578 271.5,303.2578 L271.5,277.2578 " fill="#FEFECE" filter="url(#f1nwd5gfvwhd0s)" style="stroke: #000000; stroke-width: 1.5;"/><path d="M271.5,277.2578 C271.5,287.2578 289.5,287.2578 289.5,287.2578 C289.5,287.2578 307.5,287.2578 307.5,277.2578 " fill="none" style="stroke: #000000; stroke-width: 1.5;"/><rect fill="#FEFECE" filter="url(#f1nwd5gfvwhd0s)" height="30.2969" style="stroke: #A80036; stroke-width: 1.5;" width="49" x="324" y="47"/><rect fill="#FEFECE" filter="url(#f1nwd5gfvwhd0s)" height="30.2969" style="stroke: #A80036; stroke-width: 1.5;" width="49" x="320" y="51"/><text fill="#000000" font-family="sans-serif" font-size="14" lengthAdjust="spacingAndGlyphs" textLength="35" x="327" y="70.9951">Foo6</text><rect fill="#FEFECE" filter="url(#f1nwd5gfvwhd0s)" height="30.2969" style="stroke: #A80036; stroke-width: 1.5;" width="49" x="324" y="250.9609"/><rect fill="#FEFECE" filter="url(#f1nwd5gfvwhd0s)" height="30.2969" style="stroke: #A80036; stroke-width: 1.5;" width="49" x="320" y="254.9609"/><text fill="#000000" font-family="sans-serif" font-size="14" lengthAdjust="spacingAndGlyphs" textLength="35" x="327" y="274.9561">Foo6</text><polygon fill="#A80036" points="121.5,113.4297,131.5,117.4297,121.5,121.4297,125.5,117.4297" style="stroke: #A80036; stroke-width: 1.0;"/><line style="stroke: #A80036; stroke-width: 1.0;" x1="28.5" x2="127.5" y1="117.4297" y2="117.4297"/><text fill="#000000" font-family="sans-serif" font-size="13" lengthAdjust="spacingAndGlyphs" textLength="81" x="35.5" y="112.3638">To boundary</text><polygon fill="#A80036" points="176.5,142.5625,186.5,146.5625,176.5,150.5625,180.5,146.5625" style="stroke: #A80036; stroke-width: 1.0;"/><line style="stroke: #A80036; stroke-width: 1.0;" x1="28.5" x2="182.5" y1="146.5625" y2="146.5625"/><text fill="#000000" font-family="sans-serif" font-size="13" lengthAdjust="spacingAndGlyphs" textLength="64" x="35.5" y="141.4966">To control</text><polygon fill="#A80036" points="227,171.6953,237,175.6953,227,179.6953,231,175.6953" style="stroke: #A80036; stroke-width: 1.0;"/><line style="stroke: #A80036; stroke-width: 1.0;" x1="28.5" x2="233" y1="175.6953" y2="175.6953"/><text fill="#000000" font-family="sans-serif" font-size="13" lengthAdjust="spacingAndGlyphs" textLength="57" x="35.5" y="170.6294">To entity</text><polygon fill="#A80036" points="277.5,200.8281,287.5,204.8281,277.5,208.8281,281.5,204.8281" style="stroke: #A80036; stroke-width: 1.0;"/><line style="stroke: #A80036; stroke-width: 1.0;" x1="28.5" x2="283.5" y1="204.8281" y2="204.8281"/><text fill="#000000" font-family="sans-serif" font-size="13" lengthAdjust="spacingAndGlyphs" textLength="80" x="35.5" y="199.7622">To database</text><polygon fill="#A80036" points="336.5,229.9609,346.5,233.9609,336.5,237.9609,340.5,233.9609" style="stroke: #A80036; stroke-width: 1.0;"/><line style="stroke: #A80036; stroke-width: 1.0;" x1="28.5" x2="342.5" y1="233.9609" y2="233.9609"/><text fill="#000000" font-family="sans-serif" font-size="13" lengthAdjust="spacingAndGlyphs" textLength="87" x="35.5" y="228.895">To collections</text><!--MD5=[6b64bd03cfeda6766ae20753eb34179d]
@startuml
actor Foo1
boundary Foo2
control Foo3
entity Foo4
database Foo5
collections Foo6
Foo1 -> Foo2 : To boundary
Foo1 -> Foo3 : To control
Foo1 -> Foo4 : To entity
Foo1 -> Foo5 : To database
Foo1 -> Foo6 : To collections
@enduml

PlantUML version 1.2020.12(Sat Jun 06 10:54:15 UTC 2020)
(GPL source distribution)
Java Runtime: Java(TM) SE Runtime Environment
JVM: Java HotSpot(TM) 64-Bit Server VM
Default Encoding: UTF-8
Language: en
Country: US
--></g></svg>