<?xml version="1.0" encoding="UTF-8" standalone="no"?><svg xmlns="http://www.w3.org/2000/svg" xmlns:xlink="http://www.w3.org/1999/xlink" contentScriptType="application/ecmascript" contentStyleType="text/css" height="247px" preserveAspectRatio="none" style="width:272px;height:247px;" version="1.1" viewBox="0 0 272 247" width="272px" zoomAndPan="magnify"><defs><filter height="300%" id="fkn1s88dzkkrk" width="300%" x="-1" y="-1"><feGaussianBlur result="blurOut" stdDeviation="2.0"/><feColorMatrix in="blurOut" result="blurOut2" type="matrix" values="0 0 0 0 0 0 0 0 0 0 0 0 0 0 0 0 0 0 .4 0"/><feOffset dx="4.0" dy="4.0" in="blurOut2" result="blurOut3"/><feBlend in="SourceGraphic" in2="blurOut3" mode="normal"/></filter></defs><g><ellipse cx="78.5" cy="16" fill="#000000" filter="url(#fkn1s88dzkkrk)" rx="10" ry="10" style="stroke: none; stroke-width: 1.0;"/><g id="State1"><rect fill="#FEFECE" filter="url(#fkn1s88dzkkrk)" height="64.2344" rx="12.5" ry="12.5" style="stroke: #A80036; stroke-width: 1.5;" width="143" x="7" y="86"/><line style="stroke: #A80036; stroke-width: 1.5;" x1="7" x2="150" y1="112.2969" y2="112.2969"/><text fill="#000000" font-family="sans-serif" font-size="14" lengthAdjust="spacingAndGlyphs" textLength="49" x="54" y="103.9951">State1</text><text fill="#000000" font-family="sans-serif" font-size="12" lengthAdjust="spacingAndGlyphs" textLength="84" x="12" y="128.4355">this is a string</text><text fill="#000000" font-family="sans-serif" font-size="12" lengthAdjust="spacingAndGlyphs" textLength="123" x="12" y="142.4043">this is another string</text></g><ellipse cx="148.5" cy="220" fill="none" filter="url(#fkn1s88dzkkrk)" rx="10" ry="10" style="stroke: #000000; stroke-width: 1.0;"/><ellipse cx="149" cy="220.5" fill="#000000" rx="6" ry="6" style="stroke: none; stroke-width: 1.0;"/><g id="State2"><rect fill="#FEFECE" filter="url(#fkn1s88dzkkrk)" height="50" rx="12.5" ry="12.5" style="stroke: #A80036; stroke-width: 1.5;" width="68" x="185.5" y="93"/><line style="stroke: #A80036; stroke-width: 1.5;" x1="185.5" x2="253.5" y1="119.2969" y2="119.2969"/><text fill="#000000" font-family="sans-serif" font-size="14" lengthAdjust="spacingAndGlyphs" textLength="48" x="195.5" y="110.9951">State2</text></g><!--MD5=[60533a5dc91355c93bf187ba4549d745]
link *start to State1--><path d="M78.5,26.229 C78.5,38.515 78.5,60.965 78.5,80.463 " fill="none" id="*start-&gt;State1" style="stroke: #A80036; stroke-width: 1.0;"/><polygon fill="#A80036" points="78.5,85.873,82.5,76.873,78.5,80.873,74.5,76.873,78.5,85.873" style="stroke: #A80036; stroke-width: 1.0;"/><!--MD5=[ca1046a354e184ac9d197a073cc82934]
link State1 to *end--><path d="M100.2647,150.0925 C113.678,169.2547 130.133,192.762 139.944,206.7765 " fill="none" id="State1-&gt;*end" style="stroke: #A80036; stroke-width: 1.0;"/><polygon fill="#A80036" points="143.002,211.1453,141.1173,201.4785,140.1345,207.0493,134.5637,206.0665,143.002,211.1453" style="stroke: #A80036; stroke-width: 1.0;"/><!--MD5=[dc702cd49c4e27e6abb2620dc4bb28d8]
link State1 to State2--><path d="M150.102,118 C160.105,118 170.108,118 180.112,118 " fill="none" id="State1-&gt;State2" style="stroke: #A80036; stroke-width: 1.0;"/><polygon fill="#A80036" points="185.343,118,176.343,114,180.343,118,176.343,122,185.343,118" style="stroke: #A80036; stroke-width: 1.0;"/><!--MD5=[37ebb224bae70bf8df0e6bab9d19d55b]
link State2 to *end--><path d="M202.313,143.2072 C188.031,163.3228 168.303,191.1081 157.131,206.8442 " fill="none" id="State2-&gt;*end" style="stroke: #A80036; stroke-width: 1.0;"/><polygon fill="#A80036" points="153.953,211.3192,162.4247,206.2962,156.8475,207.2422,155.9015,201.665,153.953,211.3192" style="stroke: #A80036; stroke-width: 1.0;"/><!--MD5=[df89e6217d1d787c0109bb26bd06fcf5]
@startuml
[*] - -> State1
State1 - -> [*]
State1 : this is a string
State1 : this is another string

State1 -> State2
State2 - -> [*]
@enduml

PlantUML version 1.2020.13(Sat Jun 13 12:26:38 UTC 2020)
(GPL source distribution)
Java Runtime: Java(TM) SE Runtime Environment
JVM: Java HotSpot(TM) 64-Bit Server VM
Default Encoding: UTF-8
Language: en
Country: US
--></g></svg>